<svg xmlns="http://www.w3.org/2000/svg" viewBox="0 0 530.14 435.06"><defs><style>.cls-1{fill:#fff;}</style></defs><g id="Layer_4" data-name="Layer 4"><path class="cls-1" d="M422.83,198.51c0,14.65-11.18,26-25.53,26a26.47,26.47,0,0,1-26.11-26.6c0-14.77,11.85-26.31,27.12-26.41C411.79,171.36,422.83,183.55,422.83,198.51Zm-6.37-.51c0-11.7-8.18-20.37-19.21-20.38-11.34,0-19.69,8.71-19.57,20.45a19.83,19.83,0,0,0,20.23,20C408.42,218.07,416.46,209.35,416.46,198Z"/><path class="cls-1" d="M314.87,198.44c.48,15.18-11.87,25.93-25.89,25.89-14.9,0-25.51-11.64-25.24-26.93.26-15.05,11.75-25.55,27.64-25.29C304.78,172.33,315.08,183.88,314.87,198.44ZM289,177.64c-11.08,0-18.68,8.14-18.68,20.05s8.38,21.06,19.41,21.16c9.94.1,18.64-9.55,18.66-20.69C308.39,186.26,300.25,177.66,289,177.64Z"/><path class="cls-1" d="M152.77,171.9c13.15-.76,24.13,9,25.48,23.12,1.53,16-9,28.67-23.36,29.43-14.16.73-26.26-9.7-27.2-23.36C126.78,188,135.26,171.86,152.77,171.9ZM134,198.07c0,12,8.1,20.38,19.88,20.39,10.07,0,18.12-8.86,18.16-20,0-12-8-20.89-19.06-20.88S134,186.17,134,198.07Z"/><path class="cls-1" d="M188,186.85c5.47-.38,5.47-.38,6.87,8.1,3.57,0,7.18.27,10.73-.06a7.75,7.75,0,0,0,7.36-8.8c-.46-4.85-3.61-7.57-8.76-7.45-4.16.11-8.31.36-12.47.49-1.31,0-2.61-.11-4.12-.18v-5.62c7.06,0,14-.36,20.93.13a10.59,10.59,0,0,1,9.76,7.86,13.26,13.26,0,0,1-3.19,13.44c-.73.77-1.53,1.47-2.69,2.57,4.37,1.31,7.53,3.62,8.7,8,2,7.48-1.7,14.37-9.15,16.83a20.69,20.69,0,0,1-5.84,1.33c-5.9.18-11.8.07-18.13.07Zm6.55,31.53c5-.37,9.59-.34,14-1.13a8.55,8.55,0,0,0,6.88-8.72c-.16-3.7-3.22-7.58-7.26-8-4.45-.48-9-.11-13.63-.11Z"/><path class="cls-1" d="M257.47,177.68l-2.5,2.91c-4.37-1.08-8.13-2.56-12-2.81a8.29,8.29,0,0,0-8.89,6.59c-.7,3.72,1,6.64,5.5,8.75,2.77,1.3,5.74,2.18,8.58,3.34,7.72,3.17,11.26,9,10,16.33-1.06,6.08-7.86,11.34-15.06,11.75-6.31.35-11.93-1-16.22-6,2.71-5.16,2.66-5.07,7.16-2.33,4.28,2.62,8.81,4,13.61,1.2,2.7-1.58,4.41-3.77,4.33-7.14s-1.45-6-4.54-7.44c-2.66-1.21-5.49-2.07-8.25-3.08-8.47-3.12-12.53-8.71-11.44-15.73s7.3-11.7,15.84-12.14C249,171.63,253.66,173,257.47,177.68Z"/><path class="cls-1" d="M329.85,217.91h20v5.34h-26v-50h6Z"/><path class="cls-1" d="M356.87,173.12h6v50.35h-6Z"/></g></svg>