<svg xmlns="http://www.w3.org/2000/svg" viewBox="0 0 530.14 435.06"><g id="Layer_4" data-name="Layer 4"><path d="M406.78,214.49c0,14.65-11.17,26-25.52,25.94a26.45,26.45,0,0,1-26.11-26.59c0-14.77,11.85-26.31,27.11-26.41C395.74,187.33,406.79,199.52,406.78,214.49Zm-6.37-.51c0-11.71-8.17-20.37-19.2-20.38-11.35,0-19.69,8.71-19.58,20.45a19.84,19.84,0,0,0,20.23,20C392.37,234.05,400.42,225.32,400.41,214Z"/><path d="M298.82,214.42c.49,15.18-11.87,25.93-25.88,25.89-14.9-.05-25.52-11.64-25.25-26.93.27-15,11.75-25.56,27.64-25.29C288.73,188.31,299,199.85,298.82,214.42Zm-25.9-20.8c-11.08,0-18.67,8.14-18.68,20s8.38,21.07,19.42,21.17c9.93.1,18.63-9.55,18.66-20.69C292.34,202.24,284.2,193.63,272.92,193.62Z"/><path d="M136.73,187.88c13.14-.76,24.13,9,25.48,23.12,1.52,16-9,28.67-23.37,29.42-14.16.74-26.25-9.69-27.2-23.35C110.73,204,119.22,187.83,136.73,187.88ZM118,214c0,12,8.1,20.39,19.89,20.4,10.06,0,18.11-8.86,18.15-20,0-12-8.05-20.88-19.06-20.87S118,202.15,118,214Z"/><path d="M172,202.83c5.47-.38,5.47-.38,6.88,8.1,3.56,0,7.17.27,10.73-.06a7.76,7.76,0,0,0,7.36-8.81c-.47-4.84-3.62-7.56-8.76-7.44-4.16.11-8.32.36-12.48.49-1.3,0-2.61-.11-4.11-.18v-5.62c7.06,0,14-.36,20.93.12a10.59,10.59,0,0,1,9.75,7.87,13.25,13.25,0,0,1-3.18,13.44c-.74.77-1.54,1.47-2.69,2.57,4.36,1.31,7.53,3.62,8.69,8,2,7.48-1.69,14.37-9.14,16.83a20.75,20.75,0,0,1-5.85,1.33c-5.89.18-11.8.07-18.13.07Zm6.55,31.53c5-.37,9.59-.34,14-1.13a8.56,8.56,0,0,0,6.88-8.72c-.17-3.7-3.23-7.58-7.27-8-4.45-.48-9-.11-13.63-.11Z"/><path d="M241.43,193.65c-1.15,1.34-2.09,2.43-2.5,2.92-4.38-1.08-8.14-2.56-12-2.81a8.3,8.3,0,0,0-8.89,6.59c-.69,3.72,1,6.64,5.5,8.75,2.78,1.3,5.74,2.18,8.58,3.34,7.72,3.17,11.27,9,10,16.32-1.07,6.08-7.86,11.35-15.06,11.76-6.32.35-11.94-1-16.23-6,2.72-5.16,2.66-5.07,7.16-2.33,4.29,2.62,8.81,4,13.61,1.2,2.71-1.58,4.42-3.77,4.33-7.14s-1.44-6-4.53-7.44c-2.67-1.22-5.5-2.07-8.25-3.08-8.47-3.13-12.54-8.71-11.45-15.73s7.31-11.7,15.84-12.14C232.91,187.61,237.62,188.94,241.43,193.65Z"/><path d="M313.81,233.89h20v5.33h-26v-50h6Z"/><path d="M340.83,189.1h5.95v50.35h-5.95Z"/></g></svg>